<svg width="22" height="20" viewBox="0 0 22 20" fill="none" xmlns="http://www.w3.org/2000/svg">
    <path d="M8.43958 16.1232L1.46588 16.1232" stroke="#5D5FEF" stroke-width="2" stroke-linecap="round"/>
    <path d="M20.9921 16.1232L8.43962 16.1232" stroke="#A5A6F6" stroke-width="2" stroke-linecap="round"/>
    <path d="M11.4495 16C11.4495 14.3431 10.0149 13 8.24517 13C6.47546 13 5.04083 14.3431 5.04083 16C5.04083 17.6569 6.47546 19 8.24517 19C10.0149 19 11.4495 17.6569 11.4495 16Z" fill="#5D5FEF" stroke="#5D5FEF" stroke-width="1.5"/>
    <path d="M14.0184 3.87682L20.9921 3.87681" stroke="#5D5FEF" stroke-width="2" stroke-linecap="round"/>
    <path d="M1.46588 3.87682L14.0183 3.87681" stroke="#A5A6F6" stroke-width="2" stroke-linecap="round"/>
    <path d="M11.0085 4C11.0085 5.65685 12.4431 7 14.2128 7C15.9825 7 17.4172 5.65685 17.4172 4C17.4172 2.34315 15.9825 1 14.2128 1C12.4431 1 11.0085 2.34315 11.0085 4Z" fill="#5D5FEF" stroke="#5D5FEF" stroke-width="1.5"/>
</svg>
